<svg width="73" height="73" viewBox="0 0 73 73" fill="none" xmlns="http://www.w3.org/2000/svg">
<mask id="mask0_15_1429" style="mask-type:alpha" maskUnits="userSpaceOnUse" x="0" y="0" width="73" height="73">
<rect width="73" height="73" fill="#D9D9D9"/>
</mask>
<g mask="url(#mask0_15_1429)">
<path d="M34.9792 66.9166C30.366 66.9166 26.4245 65.3324 23.1547 62.164C19.8849 58.9956 18.25 55.1048 18.25 50.4916V17.7937C18.25 14.5492 19.4033 11.7864 21.7099 9.50513C24.0165 7.22388 26.792 6.08325 30.0365 6.08325C33.3316 6.08325 36.1198 7.22388 38.401 9.50513C40.6823 11.7864 41.8229 14.5746 41.8229 17.8697V47.8301C41.8229 49.7565 41.1639 51.3914 39.8458 52.7348C38.5278 54.0782 36.9056 54.7499 34.9792 54.7499C33.0528 54.7499 31.4306 54.0275 30.1125 52.5827C28.7944 51.1379 28.1354 49.427 28.1354 47.4499V17.6416H31.1771V47.678C31.1771 48.7933 31.5446 49.7438 32.2797 50.5296C33.0148 51.3154 33.9146 51.7082 34.9792 51.7082C36.0438 51.7082 36.9436 51.328 37.6786 50.5676C38.4137 49.8072 38.7813 48.8947 38.7813 47.8301V17.7937C38.7813 15.3603 37.9321 13.3072 36.2339 11.6343C34.5356 9.96138 32.4698 9.12492 30.0365 9.12492C27.6031 9.12492 25.5373 9.96138 23.8391 11.6343C22.1408 13.3072 21.2917 15.3603 21.2917 17.7937V50.6437C21.2917 54.3444 22.6351 57.4747 25.3219 60.0348C28.0087 62.5949 31.2278 63.8749 34.9792 63.8749C38.7813 63.8749 42.013 62.5822 44.6745 59.9968C47.3359 57.4114 48.6667 54.243 48.6667 50.4916V17.6416H51.7083V50.4155C51.7083 55.0287 50.0734 58.9322 46.8036 62.126C43.5339 65.3197 39.5924 66.9166 34.9792 66.9166Z" fill="#7B7B7B"/>
</g>
</svg>
